<svg xmlns="http://www.w3.org/2000/svg" id="flag-icons-ge" viewBox="0 0 640 480"><defs><clipPath id="clip-ge-04" clipPathUnits="userSpaceOnUse"><rect x="213.33333333333331" y="320" width="213.33333333333331" height="160.00000000000003"/></clipPath></defs><g clip-path="url(#clip-ge-04)">
  <path fill="none" d="M0 0h640v480H0z" stroke="none"/>
  <path fill="#ff0000" d="M272 0h96v480h-96z" stroke="none"/>
  <path fill="#ff0000" d="M0 192h640v96H0z" stroke="none"/>
  <path fill="#ff0000" fill-rule="evenodd" d="M146.8 373.1c1-16.8 4-31.1 4-31.1s-9.8 1-14.8 1-14.8-1-14.8-1 3 14.3 4 31.2c-16.9-1-31.2-4-31.2-4s1 7.4 1 14.8-1 14.8-1 14.8 14.3-3 31.2-4c-1 16.9-4 31.2-4 31.2s7.4-1 14.8-1 14.8 1 14.8 1-3-14.3-4-31.2c16.9 1 31.2 4 31.2 4s-1-9.8-1-14.8 1-14.8 1-14.8-14.3 3-31.1 4zm368-288c1-16.8 4-31.1 4-31.1s-9.8 1-14.8 1-14.8-1-14.8-1 3 14.3 4 31.1c-16.9-1-31.2-3.9-31.2-3.9s1 7.4 1 14.8-1 14.8-1 14.8 14.3-3 31.2-4c-1 16.9-4 31.2-4 31.2s7.4-1 14.8-1 14.8 1 14.8 1-3-14.3-4-31.1c16.9 1 31.2 4 31.2 4s-1-10-1-14.9 1-14.8 1-14.8-14.3 3-31.2 4zm-368 0c1-16.8 4-31.1 4-31.1s-9.8 1-14.8 1-14.8-1-14.8-1 3 14.3 4 31.2c-16.9-1-31.2-4-31.2-4s1 7.4 1 14.8-1 14.8-1 14.8 14.3-3 31.2-4c-1 16.9-4 31.2-4 31.2s7.4-1 14.8-1 14.8 1 14.8 1-3-14.3-4-31.2c16.9 1 31.2 4 31.2 4s-1-9.8-1-14.8 1-14.8 1-14.8-14.3 3-31.1 4zm368 288c1-16.8 4-31.1 4-31.1s-9.8 1-14.8 1-14.8-1-14.8-1 3 14.3 4 31.2c-16.9-1-31.2-4-31.2-4s1 7.4 1 14.8-1 14.8-1 14.8 14.3-3 31.2-4c-1 16.9-4 31.2-4 31.2s7.4-1 14.8-1 14.8 1 14.8 1-3-14.3-4-31.2c16.9 1 31.2 4 31.2 4s-1-9.8-1-14.8 1-14.8 1-14.8-14.3 3-31.2 4z" stroke="none"/>
</g></svg>