<svg xmlns="http://www.w3.org/2000/svg" xmlns:xlink="http://www.w3.org/1999/xlink" id="flag-icons-uz" viewBox="0 0 640 480">
  <path fill="none" d="M0 320h640v160H0z" stroke="none"/>
  <path fill="none" d="M0 0h640v160H0z" stroke="none"/>
  <path fill="none" d="M0 153.6h640v172.8H0z" stroke="none"/>
  <path fill="none" d="M0 163.2h640v153.6H0z" stroke="none"/>
  <circle cx="134.4" cy="76.8" r="57.6" fill="none" stroke="none"/>
  <circle cx="153.6" cy="76.8" r="57.6" fill="none" stroke="none"/>
  <g fill="#ffffff" transform="translate(261.1 122.9)scale(1.92)" stroke="none">
    <g id="uz-e" fill="none" stroke="none">
      <g id="uz-d" fill="none" stroke="none">
        <g id="uz-c" fill="none" stroke="none">
          <g id="uz-b" fill="none" stroke="none">
            <path id="uz-a" d="M0-6-1.9-.3 1 .7" fill="none" stroke="none"/>
            <use xlink:href="#uz-a" width="100%" height="100%" transform="scale(-1 1)" fill="none" stroke="none"/>
          </g>
          <use xlink:href="#uz-b" width="100%" height="100%" transform="rotate(72)" fill="none" stroke="none"/>
        </g>
        <use xlink:href="#uz-b" width="100%" height="100%" transform="rotate(-72)" fill="none" stroke="none"/>
        <use xlink:href="#uz-c" width="100%" height="100%" transform="rotate(144)" fill="none" stroke="none"/>
      </g>
      <use xlink:href="#uz-d" width="100%" height="100%" y="-24" fill="none" stroke="none"/>
      <use xlink:href="#uz-d" width="100%" height="100%" y="-48" fill="none" stroke="none"/>
    </g>
    <use xlink:href="#uz-e" width="100%" height="100%" x="24" fill="none" stroke="none"/>
    <use xlink:href="#uz-e" width="100%" height="100%" x="48" fill="none" stroke="none"/>
    <use xlink:href="#uz-d" width="100%" height="100%" x="-48" fill="none" stroke="none"/>
    <use xlink:href="#uz-d" width="100%" height="100%" x="-24" fill="none" stroke="none"/>
    <use xlink:href="#uz-d" width="100%" height="100%" x="-24" y="-24" fill="none" stroke="none"/>
  </g>
</svg>