<svg xmlns="http://www.w3.org/2000/svg" id="flag-icons-gr" viewBox="0 0 640 480">
  <path fill="none" fill-rule="evenodd" d="M0 0h640v53.3H0z" stroke="none"/>
  <path fill="none" fill-rule="evenodd" d="M0 53.3h640v53.4H0z" stroke="none"/>
  <path fill="none" fill-rule="evenodd" d="M0 106.7h640V160H0z" stroke="none"/>
  <path fill="none" fill-rule="evenodd" d="M0 160h640v53.3H0z" stroke="none"/>
  <path fill="#0d5eaf" d="M0 0h266.7v266.7H0z" stroke="none"/>
  <path fill="#0d5eaf" fill-rule="evenodd" d="M0 213.3h640v53.4H0z" stroke="none"/>
  <path fill="none" fill-rule="evenodd" d="M0 266.7h640V320H0z" stroke="none"/>
  <path fill="none" fill-rule="evenodd" d="M0 320h640v53.3H0z" stroke="none"/>
  <path fill="none" fill-rule="evenodd" d="M0 373.3h640v53.4H0z" stroke="none"/>
  <g fill="none" fill-rule="evenodd" stroke-width="1.3" stroke="none">
    <path d="M106.7 0H160v266.7h-53.3z" fill="none" stroke="none"/>
    <path d="M0 106.7h266.7V160H0z" fill="none" stroke="none"/>
  </g>
  <path fill="none" d="M0 426.7h640V480H0z" stroke="none"/>
</svg>