<svg xmlns="http://www.w3.org/2000/svg" id="flag-icons-lr" viewBox="0 0 640 480">
  <defs>
    <clipPath id="lr-a" fill="none" stroke="none">
      <path fill-opacity=".7" d="M0 0h682.7v512H0z" fill="none" stroke="none"/>
    </clipPath>
  </defs>
  <g fill-rule="evenodd" clip-path="url(#lr-a)" transform="scale(.9375)" fill="none" stroke="none">
    <path fill="none" d="M0 0h767.9v512H0z" stroke="none"/>
    <path fill="none" d="M0 0h232.7v232.8H0z" stroke="none"/>
    <path fill="none" d="M0 464.9h767.9V512H0z" stroke="none"/>
    <path fill="none" d="M0 465.4h767.9V512H0zm0-92.9h767.9v46.2H0zm0-93.2h766V326H0zM232.7 0h535.1v46.5H232.7zm0 186h535.1v46.8H232.7zm0-92.7h535.1v46.5H232.7z" stroke="none"/>
    <path fill="#ffffff" d="m166.3 177.5-50.7-31-50.4 31.3 18.7-50.9-50.3-31.4 62.3-.4 19.3-50.7L135 95h62.3l-50.1 31.7z" stroke="none"/>
  </g>
</svg>