<svg xmlns="http://www.w3.org/2000/svg" id="flag-icons-pk" viewBox="0 0 640 480"><defs>
    <clipPath id="pk-a" fill="none" stroke="none">
      <path fill-opacity=".7" d="M-52.3 0h682.6v512H-52.3z" fill="none" stroke="none"/>
    </clipPath>
  <clipPath id="clip-pk-03" clipPathUnits="userSpaceOnUse"><rect x="213.33333333333331" y="160" width="213.33333333333331" height="160"/></clipPath></defs><g clip-path="url(#clip-pk-03)">
  
  <g fill-rule="evenodd" stroke-width="1pt" clip-path="url(#pk-a)" transform="translate(49)scale(.9375)" fill="none" stroke="none">
    <path fill="#0c590b" d="M-95 0h768v512H-95z" stroke="none"/>
    <path fill="none" d="M-95 0H97.5v512H-95z" stroke="none"/>
    <g fill="none" stroke="none">
      <path d="m403.7 225.4-31.2-6.6-16.4 27.3-3.4-31.6-31-7.2 29-13-2.7-31.7 21.4 23.6 29.3-12.4-15.9 27.6 21 24z" fill="none" stroke="none"/>
      <path d="M415.4 306a121 121 0 0 1-161.3 59.4 122 122 0 0 1-59.5-162.1A119 119 0 0 1 266 139a156 156 0 0 0-11.8 10.9A112.3 112.3 0 0 0 415.5 306z" fill="none" stroke="none"/>
    </g>
  </g>
</g></svg>