<svg xmlns="http://www.w3.org/2000/svg" id="flag-icons-nr" viewBox="0 0 640 480"><defs>
    <clipPath id="nr-a" fill="none" stroke="none">
      <path fill-opacity=".7" d="M-54.7 0H628v512H-54.7z" fill="none" stroke="none"/>
    </clipPath>
  <clipPath id="clip-nr-04" clipPathUnits="userSpaceOnUse"><rect x="213.33333333333331" y="160" width="213.33333333333331" height="160"/></clipPath></defs><g clip-path="url(#clip-nr-04)">
  
  <g fill-rule="evenodd" stroke-width="1pt" clip-path="url(#nr-a)" transform="translate(51.3)scale(.9375)" fill="none" stroke="none">
    <path fill="#002170" d="M-140 0H884v512H-140z" stroke="none"/>
    <path fill="none" d="M-140 234.1H884V278H-140z" stroke="none"/>
    <path fill="none" d="m161.8 438-33-33-10.5 45.4-12-45-31.9 34 12.1-45L42 407.9l33-33-45.4-10.6 45-12-34-31.8 45 12L72 288l33 33 10.6-45.4 12 45 31.8-34-12 45 44.5-13.5-33 33 45.4 10.5-45 12 34 32-45-12.2z" stroke="none"/>
  </g>
</g></svg>