<svg xmlns="http://www.w3.org/2000/svg" xmlns:xlink="http://www.w3.org/1999/xlink" id="flag-icons-ke" viewBox="0 0 640 480">
  <defs>
    <path id="ke-a" stroke-miterlimit="10" d="m-28.6 47.5 1.8 1 46.7-81c2.7-.6 4.2-3.2 5.7-5.8 1-1.8 5-8.7 6.7-17.7a58 58 0 0 0-11.9 14.7c-1.5 2.6-3 5.2-2.3 7.9z" fill="none" stroke="none"/>
  </defs>
  <path fill="none" d="M0 0h640v480H0z" stroke="none"/>
  <path fill="none" d="M0 0h640v144H0z" stroke="none"/>
  <path fill="none" d="M0 336h640v144H0z" stroke="none"/>
  <g id="ke-b" transform="matrix(3 0 0 3 320 240)" fill="none" stroke="none">
    <use xlink:href="#ke-a" width="100%" height="100%" stroke="none" fill="none"/>
    <use xlink:href="#ke-a" width="100%" height="100%" fill="#ffffff" stroke="none"/>
  </g>
  <use xlink:href="#ke-b" width="100%" height="100%" transform="matrix(-1 0 0 1 640 0)" fill="none" stroke="none"/>
  <path fill="none" d="M640.5 168H377c-9-24-39-72-57-72s-48 48-57 72H-.2v144H263c9 24 39 72 57 72s48-48 57-72h263.5z" stroke="none"/>
  <path id="ke-c" d="M377 312c9-24 15-48 15-72s-6-48-15-72c-9 24-15 48-15 72s6 48 15 72" fill="none" stroke="none"/>
  <use xlink:href="#ke-c" width="100%" height="100%" transform="matrix(-1 0 0 1 640 0)" fill="none" stroke="none"/>
  <g fill="none" transform="matrix(3 0 0 3 320 240)" stroke="none">
    <ellipse rx="4" ry="6" fill="none" stroke="none"/>
    <path id="ke-d" d="M1 5.8s4 8 4 21-4 21-4 21z" fill="none" stroke="none"/>
    <use xlink:href="#ke-d" width="100%" height="100%" transform="scale(-1)" fill="none" stroke="none"/>
    <use xlink:href="#ke-d" width="100%" height="100%" transform="scale(-1 1)" fill="none" stroke="none"/>
    <use xlink:href="#ke-d" width="100%" height="100%" transform="scale(1 -1)" fill="none" stroke="none"/>
  </g>
</svg>